<svg xmlns="http://www.w3.org/2000/svg" viewBox="0 0 487.56 512"><title>reset</title><g id="Capa_2" data-name="Capa 2"><g id="Capa_1-2" data-name="Capa 1"><path d="M487.56,39.86v157a7.22,7.22,0,0,1-7.22,7.22h-.1c-.22,0-.45,0-.68,0H331.8a2.72,2.72,0,0,1-.43,0h0a7.22,7.22,0,0,1-5.24-12.19l39.66-41.81-6.86-6.73c-10.11-9.87-20.21-16.73-35.62-24.19-47-22.74-104-18.65-148.84,10.71-13.59,8.78-34.17,29-42.71,41.75a159.63,159.63,0,0,0-23.34,52.94c-2.29,9.75-2.77,14.68-2.77,32.49-.12,23,1,31.05,6.74,48.73,16.84,52,60.88,91.45,115.27,103.48,13.71,3,39.1,3.61,53.06,1.33,28.16-4.58,54.87-17.33,78.09-37.31l4.94-4.25a4.1,4.1,0,0,1,5.57.2l33.05,33.05,33,33a4.1,4.1,0,0,1,.13,5.66c-1.45,1.56-7.46,7-13.48,12-34.41,28.88-77,48.37-123.33,56.19-15.88,2.77-51.86,3.73-68.83,1.93a257.74,257.74,0,0,1-203.1-140.9C8.19,333.24,0,297.86,0,255.87S8.19,178.5,26.72,141.56C65.34,64.43,138.86,12.57,225.85.9c12.88-1.8,59.32-.72,72.8,1.57,26.59,4.69,48,11.43,71.59,23C393.22,36.52,416,52.16,432.57,68l5.65,5.54,3.27-3.27L475.1,34.89A7.22,7.22,0,0,1,487.56,39.86Z" style="fill:#fff"/></g></g></svg>